<svg width="76" height="40" viewBox="0 0 76 40" fill="none" xmlns="http://www.w3.org/2000/svg">
<path d="M25.3333 0C34.9063 0 42.6667 7.7604 42.6667 17.3333C42.6667 26.9063 34.9063 34.6667 25.3333 34.6667C22.4476 34.6667 19.7267 33.9612 17.3333 32.7138V40H8C8 35.5817 4.41828 32 0 32V25.3333H25.0667V25.3284C25.1552 25.3313 25.2441 25.3333 25.3333 25.3333H33.3333V17.3333C33.3333 12.9151 29.7516 9.33333 25.3333 9.33333C20.9151 9.33333 17.3333 12.9151 17.3333 17.3333C17.3333 17.4226 17.3354 17.5115 17.3383 17.6H17.3333V22.6667H8V17.3333C8 7.7604 15.7604 0 25.3333 0Z" fill="black"/>
<path d="M50.6667 0C60.2396 0 68 7.7604 68 17.3333V25.3333H76V32C71.5817 32 68 35.5817 68 40H58.6667C58.6667 39.928 58.6654 39.8562 58.6635 39.7846C58.6627 39.7532 58.6611 39.7219 58.6599 39.6906C58.6583 39.6497 58.6571 39.6088 58.655 39.568C58.6531 39.5323 58.6503 39.4967 58.6479 39.4612C58.6456 39.4265 58.6434 39.3919 58.6406 39.3573C58.6376 39.3192 58.634 39.2812 58.6305 39.2432C58.6273 39.2095 58.6242 39.1758 58.6206 39.1422C58.6169 39.1077 58.613 39.0732 58.6089 39.0388C58.6039 38.9973 58.5986 38.9559 58.593 38.9146C58.5894 38.8882 58.5859 38.8619 58.582 38.8357C58.5758 38.7928 58.5689 38.7502 58.562 38.7076C58.5571 38.6777 58.5523 38.6479 58.5471 38.6182C58.539 38.5715 58.5303 38.5249 58.5214 38.4784C58.5176 38.4587 58.5141 38.4389 58.5102 38.4193C58.4986 38.3615 58.486 38.3041 58.4732 38.2469C58.4704 38.2346 58.4682 38.2222 58.4654 38.2099C58.4179 38.0022 58.3623 37.7976 58.299 37.5964C58.2926 37.5761 58.2857 37.5559 58.2792 37.5357C58.264 37.4888 58.2488 37.442 58.2328 37.3956C58.2261 37.376 58.2189 37.3565 58.212 37.337C58.1948 37.2882 58.1772 37.2397 58.1591 37.1914C58.1528 37.1746 58.1465 37.1579 58.1401 37.1411C58.122 37.0939 58.1033 37.0469 58.0844 37C58.0766 36.9809 58.0691 36.9617 58.0612 36.9427C58.0428 36.8982 58.0239 36.854 58.0047 36.8099C57.9951 36.7878 57.9853 36.7657 57.9755 36.7438C57.7752 36.2947 57.5347 35.8677 57.2586 35.4669C57.2545 35.461 57.2504 35.4551 57.2464 35.4492C55.8023 33.3652 53.3941 32 50.6667 32C48.7008 32 46.9009 32.7094 45.5081 33.8857C45.5074 33.8863 45.5067 33.8869 45.506 33.8875C45.4587 33.9275 45.412 33.9681 45.3656 34.0091C45.3592 34.0148 45.3527 34.0204 45.3464 34.026C45.2428 34.1183 45.1416 34.2132 45.043 34.3107C45.0417 34.3119 45.0406 34.3133 45.0393 34.3146C44.7884 34.563 44.5537 34.8277 44.3372 35.1073C44.3314 35.1149 44.3256 35.1226 44.3198 35.1302C44.2844 35.1762 44.2495 35.2225 44.2151 35.2693C44.2062 35.2814 44.1974 35.2938 44.1885 35.306C44.1544 35.353 44.1206 35.4004 44.0875 35.4482C44.083 35.4546 44.0784 35.461 44.074 35.4674C44.0385 35.519 44.0036 35.571 43.9693 35.6234C43.9642 35.6312 43.9592 35.6389 43.9542 35.6466C43.9232 35.6943 43.8928 35.7425 43.8628 35.7909C43.8553 35.803 43.8475 35.8149 43.8401 35.8271C43.7313 36.0048 43.6291 36.187 43.5341 36.3734C43.5278 36.3859 43.5216 36.3985 43.5154 36.4109C43.4907 36.46 43.4664 36.5092 43.4427 36.5589C43.4328 36.5796 43.4233 36.6005 43.4135 36.6214C43.3948 36.6615 43.3764 36.7017 43.3583 36.7422C43.3483 36.7647 43.3382 36.7873 43.3284 36.8099C43.3092 36.854 43.2903 36.8982 43.2719 36.9427C43.264 36.9617 43.2564 36.9809 43.2487 37C43.2297 37.0469 43.2111 37.0939 43.193 37.1411C43.1866 37.1579 43.1803 37.1746 43.174 37.1914C43.1558 37.2397 43.1383 37.2882 43.1211 37.337C43.1142 37.3565 43.107 37.376 43.1003 37.3956C43.0843 37.442 43.0691 37.4888 43.0539 37.5357C43.049 37.551 43.0437 37.5662 43.0388 37.5815L43.0263 37.6211C42.9662 37.8143 42.9132 38.0107 42.8677 38.2099C42.8649 38.2222 42.8626 38.2346 42.8599 38.2469C42.8471 38.3041 42.8345 38.3615 42.8229 38.4193C42.819 38.4389 42.8155 38.4587 42.8117 38.4784C42.8028 38.5249 42.7941 38.5715 42.7859 38.6182C42.7808 38.6479 42.7759 38.6777 42.7711 38.7076C42.7642 38.7502 42.7573 38.7928 42.751 38.8357C42.7472 38.8619 42.7437 38.8882 42.7401 38.9146C42.7345 38.9559 42.7292 38.9973 42.7242 39.0388C42.7201 39.0732 42.7162 39.1077 42.7125 39.1422C42.7089 39.1758 42.7058 39.2095 42.7026 39.2432C42.699 39.2812 42.6955 39.3192 42.6925 39.3573C42.6897 39.3919 42.6875 39.4265 42.6852 39.4612C42.6828 39.4967 42.68 39.5323 42.6781 39.568C42.676 39.6088 42.6747 39.6497 42.6732 39.6906C42.672 39.7219 42.6704 39.7532 42.6695 39.7846C42.6676 39.8562 42.6667 39.928 42.6667 40H33.3333V35.669C37.9471 33.6532 41.6532 29.9471 43.669 25.3333H58.6667V17.6H58.6617C58.6646 17.5115 58.6667 17.4226 58.6667 17.3333C58.6667 12.9151 55.0849 9.33333 50.6667 9.33333C48.2602 9.33333 46.102 10.3959 44.6354 12.0773C43.7723 8.90005 42.1456 6.03721 39.9646 3.69792C42.9115 1.38167 46.6276 3.44359e-07 50.6667 0Z" fill="black"/>
</svg>
